<?xml version="1.0" encoding="UTF-8" standalone="no"?>
<svg
   xmlns:dc="http://purl.org/dc/elements/1.1/"
   xmlns:cc="http://creativecommons.org/ns#"
   xmlns:rdf="http://www.w3.org/1999/02/22-rdf-syntax-ns#"
   xmlns:svg="http://www.w3.org/2000/svg"
   xmlns="http://www.w3.org/2000/svg"
   xmlns:sodipodi="http://sodipodi.sourceforge.net/DTD/sodipodi-0.dtd"
   xmlns:inkscape="http://www.inkscape.org/namespaces/inkscape"
   id="Layer_1"
   style="enable-background:new 0 0 426 426;"
   version="1.1"
   viewBox="0 0 426 426"
   xml:space="preserve"
   sodipodi:docname="mysql.svg"
   inkscape:version="0.92.3 (2405546, 2018-03-11)"><metadata
     id="metadata31"><rdf:RDF><cc:Work
         rdf:about=""><dc:format>image/svg+xml</dc:format><dc:type
           rdf:resource="http://purl.org/dc/dcmitype/StillImage" /></cc:Work></rdf:RDF></metadata><defs
     id="defs29" /><sodipodi:namedview
     pagecolor="#ffffff"
     bordercolor="#666666"
     borderopacity="1"
     objecttolerance="10"
     gridtolerance="10"
     guidetolerance="10"
     inkscape:pageopacity="0"
     inkscape:pageshadow="2"
     inkscape:window-width="1366"
     inkscape:window-height="739"
     id="namedview27"
     showgrid="false"
     inkscape:zoom="0.55399061"
     inkscape:cx="230.14831"
     inkscape:cy="213"
     inkscape:window-x="0"
     inkscape:window-y="0"
     inkscape:window-maximized="1"
     inkscape:current-layer="Layer_1" /><style
     type="text/css"
     id="style2">
	.st0{fill:#3765AF;}
	.st1{fill:#FFFFFF;}
</style><ellipse
     style="opacity:1;fill:#3765af;fill-opacity:1;fill-rule:evenodd;stroke:#000000;stroke-width:0.99999994;stroke-opacity:0"
     id="path840"
     cx="211.93753"
     cy="211.1949"
     rx="185.08971"
     ry="180.50847" /><g
     id="g24"
     style="fill:#ffffff;fill-opacity:1"><path
       class="st1"
       d="m 130.3,211.2 c -7.2,-2.1 -12.1,-0.3 -14.2,4.6 l -14.4,32.4 -14.1,-32.4 c -2.1,-4.9 -7,-6.7 -14.2,-4.6 -3.1,1 -4.6,2.6 -4.6,6.4 v 37.6 h 9.5 v -37.6 l 14.9,32.7 c 1.6,3.9 4.1,5.4 8.8,5.4 4.7,0 6.9,-1.5 8.7,-5.4 l 14.7,-32.7 v 37.6 h 9.5 v -37.6 c 0,-3.6 -1.5,-5.4 -4.6,-6.4 z"
       id="path6"
       style="fill:#ffffff;fill-opacity:1"
       inkscape:connector-curvature="0" /><path
       class="st1"
       d="m 178.7,249.1 c -0.2,0 -18,0 -20.8,0 -5.3,-0.1 -5.6,-2.8 -5.6,-3.9 v -20.6 h -9.5 c 0.3,0.1 0,20.7 0.1,21.2 0,4.7 6,9 15.5,9 h 20.3 v 2.5 c 0,0.9 0.7,4 -5.4,4.7 h -30.1 v 6.4 h 29.9 c 4.8,0 15.1,-1.8 15.1,-10.1 0,-0.2 0,-33.9 0,-33.9 h -9.5 z"
       id="path8"
       style="fill:#ffffff;fill-opacity:1"
       inkscape:connector-curvature="0" /><path
       class="st1"
       d="m 355.2,221.9 c -0.7,-0.7 -1.5,-1.3 -2.1,-2.1 -2.1,-2.8 -4.7,-5.4 -7.5,-7.4 -2.3,-1.6 -7.5,-3.8 -8.3,-6.5 0,0 0,0 -0.2,-0.2 1.6,-0.2 3.4,-0.7 5.1,-1.1 2.5,-0.7 4.7,-0.5 7.4,-1.1 1.1,-0.3 2.3,-0.7 3.4,-1 0,-0.2 0,-0.5 0,-0.7 -1.3,-1.3 -2.3,-3.1 -3.6,-4.3 -3.8,-3.3 -7.9,-6.4 -12.1,-9 -2.3,-1.5 -5.2,-2.5 -7.5,-3.6 -0.8,-0.5 -2.3,-0.7 -2.8,-1.3 -1.3,-1.6 -2.1,-3.8 -2.9,-5.6 -2.1,-4.1 -4.1,-8.5 -6.1,-12.8 -1.3,-2.8 -2.1,-5.7 -3.8,-8.3 -7.5,-12.4 -15.7,-20 -28.3,-27.3 -2.8,-1.5 -5.9,-2.1 -9.3,-2.9 -1.8,0 -3.6,-0.2 -5.4,-0.3 -1.1,-0.5 -2.3,-2 -3.4,-2.6 -4.1,-2.6 -14.9,-8.3 -18,-0.8 -2,4.7 2.9,9.5 4.6,11.8 1.3,1.6 2.8,3.6 3.8,5.4 0.5,1.3 0.7,2.6 1.1,3.9 1.1,3.3 2.3,6.7 3.8,9.8 0.8,1.5 1.6,3.1 2.8,4.6 0.7,0.8 1.6,1.1 1.8,2.5 -1,1.5 -1.1,3.6 -1.6,5.4 -2.6,8.2 -1.6,18.5 2.1,24.5 1.1,1.8 3.9,5.9 7.7,4.3 3.3,-1.3 2.6,-5.4 3.4,-9.2 0.2,-0.8 0,-1.5 0.5,-2 v 0.2 c 1,2 2,4.1 2.9,6.1 2.3,3.6 6.2,7.4 9.5,9.8 1.8,1.3 3.1,3.6 5.4,4.4 v -0.2 c 0,0 0,0 -0.2,0 -0.5,-0.7 -1.1,-1 -1.6,-1.5 -1.3,-1.3 -2.8,-2.9 -3.8,-4.4 -3.1,-4.1 -5.7,-8.7 -8.2,-13.3 -1.1,-2.3 -2.1,-4.7 -3.1,-7 -0.5,-0.8 -0.5,-2.1 -1.1,-2.6 -1.1,1.6 -2.8,2.9 -3.4,4.9 -1.3,3.1 -1.5,7 -2,11 -0.3,0 -0.2,0 -0.3,0.2 -2.3,-0.7 -3.1,-2.9 -4.1,-5.1 -2.1,-5.2 -2.6,-13.6 -0.7,-19.5 0.5,-1.5 2.8,-6.4 1.8,-7.9 -0.5,-1.3 -2,-2.1 -2.8,-3.3 -1,-1.3 -2,-3.1 -2.6,-4.7 -1.8,-4.1 -2.6,-8.7 -4.6,-12.8 -0.8,-2 -2.5,-3.9 -3.6,-5.6 -1.3,-2 -2.9,-3.4 -4.1,-5.7 -0.3,-0.8 -0.8,-2.1 -0.3,-2.9 0.2,-0.7 0.5,-0.8 1,-1 1,-0.8 3.6,0.2 4.6,0.7 2.8,1.1 4.9,2.1 7.2,3.6 1,0.7 2.1,2.1 3.4,2.5 0.5,0 1,0 1.5,0 2.3,0.5 4.9,0.2 7.2,0.8 3.9,1.3 7.4,3.1 10.5,5.1 9.5,6.1 17.5,14.7 22.7,25 0.8,1.6 1.3,3.3 2,4.9 1.5,3.6 3.4,7.2 4.9,10.8 1.5,3.4 2.9,6.9 5.2,9.8 1.1,1.5 5.4,2.3 7.5,3.1 1.5,0.7 3.8,1.3 5.1,2 2.5,1.5 4.9,3.3 7.4,4.9 0.9,0.9 4.7,2.7 4.9,4.2 -5.9,-0.2 -10.3,0.5 -14.2,2 -1.1,0.5 -2.8,0.5 -2.9,1.8 0.7,0.7 0.7,1.5 1.1,2.3 0.8,1.5 2.5,3.4 3.8,4.4 1.5,1.1 3.1,2.3 4.7,3.4 2.8,1.8 6.1,2.8 8.8,4.6 1.6,1 3.3,2.3 4.7,3.4 0.8,0.7 1.3,1.5 2.3,2 v -0.2 c -0.5,-0.7 -0.7,-1.6 -1.1,-2.3 z"
       id="path10"
       style="fill:#ffffff;fill-opacity:1"
       inkscape:connector-curvature="0" /><path
       class="st1"
       d="m 270.6,137.5 c 0,0 0,0 0,0.2 0,0 0,0 0.2,0 0.7,1.1 1.6,2 2.3,2.9 0.7,1.1 1.1,2.3 1.6,3.4 l 0.2,-0.2 c 1,-0.7 1.5,-2 1.5,-3.6 -0.5,-0.5 -0.5,-1 -0.8,-1.5 -0.6,-0.7 -1.6,-1 -2.1,-1.5 -1.3,0 -2.1,0.2 -2.9,0.3 z"
       id="path12"
       style="fill:#ffffff;fill-opacity:1"
       inkscape:connector-curvature="0" /><path
       class="st1"
       d="m 203.8,212.1 c -5.6,1.8 -8.2,4.6 -8.2,9.5 v 5.2 c 0,4.3 4.7,8 12.9,8.8 0.8,0 1.8,0 2.8,0 h 9.8 c 0.3,0 0.7,0 1,0 2.9,0.3 4.3,0.8 5.2,2 0.7,0.7 0.7,1.1 0.7,1.8 v 5.6 c 0,0.7 -0.5,1.5 -1.3,2.3 -0.8,0.8 -2.3,1.3 -4.1,1.3 -0.3,0 -0.7,0 -1,0 h -26.2 v 6.6 h 0.1 27.5 c 3.3,0 6.2,-0.7 8.8,-1.8 4.1,-2 6.1,-4.4 6.1,-7.9 v -7 c 0,-2.8 -2.3,-5.2 -6.7,-7 -2.3,-0.8 -5.2,-1.3 -8.2,-1.3 h -11.5 c -3.9,0 -5.7,-1.1 -6.2,-3.8 0,-0.3 0,-0.7 0,-0.8 v -4.3 c 0,-0.2 0,-0.5 0,-0.8 0.5,-2 1.5,-2.5 4.9,-2.8 0.3,0 0.7,0 0.8,0 h 27.2 v -6.4 h -26.7 c -3.9,0 -5.9,0.2 -7.7,0.8 z"
       id="path14"
       style="fill:#ffffff;fill-opacity:1"
       inkscape:connector-curvature="0" /><path
       class="st1"
       d="m 306.9,243.9 v -32.7 h -9.5 l -0.2,32.8 c 0,6.5 4.9,10.1 14.7,10.8 1,0 1.8,0.2 2.8,0.2 h 24.9 v -6.4 h -25 c -5.6,0 -7.7,-1.3 -7.7,-4.7 z"
       id="path16"
       style="fill:#ffffff;fill-opacity:1"
       inkscape:connector-curvature="0" /><path
       class="st1"
       d="m 291.5,244.4 v -22.6 c 0,-5.7 -3.9,-9.2 -11.9,-10.3 -1,-0.2 -1.8,-0.2 -2.8,-0.2 h -18.2 c -0.8,0 -1.8,0.2 -2.6,0.2 -8,1 -12.1,4.6 -12.1,10.3 v 22.6 c 0,5.2 2.9,8.5 9.4,10.2 2,0.5 4,0.7 5.6,0.7 H 269 l 7.7,-0.5 7.5,6.9 h 11 l -9.3,-8.5 c 4,-1.6 5.6,-4.1 5.6,-8.8 z m -9.2,-22.1 v 21.6 c 0,0.3 0,0.7 0,1 -0.4,1.3 -1.2,2.4 -2.5,3.1 l -6.9,-6.2 h -11 l 7.9,7.2 h -8.7 c -3.8,0 -6.2,-1.5 -6.7,-4.1 0,-0.3 -0.2,-0.7 -0.2,-1 v -21.6 c 0,-2.9 2.7,-4.7 7,-4.7 h 14.4 c 3.8,0 6.2,1.4 6.7,3.9 0,0.1 0,0.5 0,0.8 z"
       id="path18"
       style="fill:#ffffff;fill-opacity:1"
       inkscape:connector-curvature="0" /><polygon
       class="st1"
       points="348.4,248.8 348.4,255.2 349.7,255.2 349.7,250.3 351.5,255.2 352.5,255.2 354.3,250.3 354.5,255.2 355.8,255.2 355.8,248.8 353.8,248.8 352.2,253.2 350.4,248.8 "
       id="polygon20"
       style="fill:#ffffff;fill-opacity:1" /><polygon
       class="st1"
       points="343.9,255.2 343.9,255.2 345.2,255.2 345.2,249.8 347,249.8 347,248.7 341.9,248.7 341.9,249.8 343.9,249.8 "
       id="polygon22"
       style="fill:#ffffff;fill-opacity:1" /></g></svg>