<?xml version="1.0" encoding="UTF-8" standalone="no"?>
<svg
   xmlns:dc="http://purl.org/dc/elements/1.1/"
   xmlns:cc="http://creativecommons.org/ns#"
   xmlns:rdf="http://www.w3.org/1999/02/22-rdf-syntax-ns#"
   xmlns:svg="http://www.w3.org/2000/svg"
   xmlns="http://www.w3.org/2000/svg"
   xmlns:sodipodi="http://sodipodi.sourceforge.net/DTD/sodipodi-0.dtd"
   xmlns:inkscape="http://www.inkscape.org/namespaces/inkscape"
   height="157.564px"
   id="svg3120"
   style="enable-background:new 0 0 122.498 157.564;"
   version="1.1"
   viewBox="0 0 122.498 157.564"
   width="122.498px"
   xml:space="preserve"
   sodipodi:docname="rails.svg"
   inkscape:version="0.92.3 (2405546, 2018-03-11)"><metadata
     id="metadata27"><rdf:RDF><cc:Work
         rdf:about=""><dc:format>image/svg+xml</dc:format><dc:type
           rdf:resource="http://purl.org/dc/dcmitype/StillImage" /></cc:Work></rdf:RDF></metadata><defs
     id="defs25" /><sodipodi:namedview
     pagecolor="#ffffff"
     bordercolor="#666666"
     borderopacity="1"
     objecttolerance="10"
     gridtolerance="10"
     guidetolerance="10"
     inkscape:pageopacity="0"
     inkscape:pageshadow="2"
     inkscape:window-width="732"
     inkscape:window-height="480"
     id="namedview23"
     showgrid="false"
     inkscape:zoom="1.4978041"
     inkscape:cx="67.591619"
     inkscape:cy="78.781998"
     inkscape:window-x="-4"
     inkscape:window-y="0"
     inkscape:window-maximized="0"
     inkscape:current-layer="svg3120" /><g
     id="layer7"
     transform="translate(-273.27313,-435.95455)"
     style="fill:#cc0000;fill-opacity:1"><path
       d="M286.594,555.5v23.156h5.906v-6.031l5.375,5.375h9.062l-7.188-7.188   c0,0,5.171-0.084,5.562-7.562c0-6.861-5.177-7.75-11.156-7.75H286.594z M292.781,561.781h5.094v4.125h-5.094V561.781z"
       id="path3993"
       style="fill:#cc0000;fill-opacity:1" /><path
       d="M318.344,555.594c-3.234-0.019-7.719,0.281-7.719,6.375v16.094h6.062   v-3.938h5.875v3.844h6.094v-16.875c0-5.293-5.881-5.5-9.031-5.5C319.231,555.594,318.806,555.597,318.344,555.594z    M316.781,561.406h5.688v6.344h-5.688V561.406z"
       id="path3997"
       style="fill:#cc0000;fill-opacity:1" /><rect
       height="22.152"
       id="rect4001"
       width="6.272"
       x="334.73"
       y="555.609"
       style="fill:#cc0000;fill-opacity:1" /><path
       d="M347.571,555.903v22.152h15.094v-5.881h-8.919v-16.369L347.571,555.903z"
       id="path4003"
       style="fill:#cc0000;fill-opacity:1" /><path
       d="M382.661,555.707v5.979h-10.096   v2.156c0,0,2.059,0,4.312,0s6.959-0.098,6.959,6.96c0,7.057-3.234,7.449-9.801,7.449c-6.568,0-7.939,0-7.939,0v-5.392   c0,0,6.371,0,9.115,0s2.896-0.894,2.896-1.672s-1.403-1.141-4.257-1.141s-8.146-1.402-8.146-6.891c0-5.489,2.744-7.548,8.233-7.548   S382.661,555.707,382.661,555.707L382.661,555.707z"
       id="path4005"
       style="fill:#cc0000;fill-opacity:1" /></g><path
     inkscape:connector-curvature="0"
     id="path3966"
     d="m 18.81887,112.98945 h 52.146 c 0,0 -11.566,-26.269 -8.626,-50.381 2.941,-24.112 21.956,-35.091 32.738,-36.267 10.781,-1.177 16.663,5.489 16.663,5.489 l 2.353,-3.529 c 0,0 -15.487,-15.683 -35.091,-13.918 -19.604,1.764 -33.13,14.702 -41.559,30.385 -8.43,15.684 -13.331,26.661 -16.663,43.128 -3.332,16.467 -1.961,25.093 -1.961,25.093 z"
     style="fill:#cc0000;fill-opacity:1" /><path
     inkscape:connector-curvature="0"
     id="path3968"
     d="m 8.42987,86.72045 10.194,0.784 -1.765,10.193 -9.605,-1.176 z"
     style="fill:#cc0000;fill-opacity:1" /><path
     inkscape:connector-curvature="0"
     id="path3970"
     d="m 24.50487,65.15645 2.745,-7.645 -9.018,-3.529 -2.94,8.233 z"
     style="fill:#cc0000;fill-opacity:1" /><path
     inkscape:connector-curvature="0"
     id="path3972"
     d="m 37.24687,38.88745 5.293,-6.272 -6.861,-4.509 -5.489,6.076 z"
     style="fill:#cc0000;fill-opacity:1" /><path
     inkscape:connector-curvature="0"
     id="path3974"
     d="m 51.16487,14.57945 4.705,5.685 6.469,-3.725 -4.705,-5.293 z"
     style="fill:#cc0000;fill-opacity:1" /><path
     inkscape:connector-curvature="0"
     id="path3976"
     d="m 74.10187,8.11045 1.176,5.686 8.038,-0.196 -0.785,-5.097 z"
     style="fill:#cc0000;fill-opacity:1" /><path
     inkscape:connector-curvature="0"
     id="path3978"
     d="m 101.35087,14.18745 -0.196,3.528 5.489,2.94 1.176,-1.764 z"
     style="fill:#cc0000;fill-opacity:1" /><path
     inkscape:connector-curvature="0"
     id="path3980"
     d="m 100.17387,29.28245 v 2.94 l 5.293,0.588 v -2.353 z"
     style="fill:#cc0000;fill-opacity:1" /><path
     inkscape:connector-curvature="0"
     id="path3982"
     d="m 83.31587,31.83045 2.548,4.704 3.725,-2.94 -0.784,-3.137 z"
     style="fill:#cc0000;fill-opacity:1" /><path
     inkscape:connector-curvature="0"
     id="path3984"
     d="m 75.27687,37.90845 3.921,5.881 -2.353,4.116 -5.685,-6.272 z"
     style="fill:#cc0000;fill-opacity:1" /><path
     inkscape:connector-curvature="0"
     id="path3986"
     d="m 67.43687,54.17845 -2.549,5.097 6.665,5.686 1.568,-6.47 z"
     style="fill:#cc0000;fill-opacity:1" /><path
     inkscape:connector-curvature="0"
     id="path3988"
     d="m 64.69187,72.01745 -0.392,6.861 8.233,3.529 -0.392,-6.47 z"
     style="fill:#cc0000;fill-opacity:1" /><path
     inkscape:connector-curvature="0"
     id="path3990"
     d="m 67.04387,96.32645 1.961,7.058 10.389,0.588 -3.725,-7.646 z"
     style="fill:#cc0000;fill-opacity:1" /></svg>